<svg width="20" height="13" viewBox="0 0 20 13" fill="none" xmlns="http://www.w3.org/2000/svg">
<path d="M9.99993 4.11589L17.8757 12.7794C18.0093 12.9263 18.163 12.9998 18.3367 12.9998C18.5103 12.9998 18.664 12.9263 18.7973 12.7794L19.7995 11.6771C19.933 11.5301 20 11.361 20 11.1705C20 10.9794 19.933 10.8104 19.7995 10.6634L10.4609 0.390616C10.3274 0.243683 10.1737 0.17041 10 0.17041C9.82628 0.17041 9.67263 0.243683 9.53905 0.390616L0.200537 10.6629C0.0667515 10.8101 0 10.9792 0 11.1703C0 11.361 0.0667515 11.5301 0.200537 11.677L1.20196 12.7793C1.33554 12.9262 1.48933 12.9995 1.66312 12.9995C1.83664 12.9995 1.99029 12.9263 2.12386 12.7793L9.99993 4.11589Z" fill="#5E8E22"/>
</svg>
