<svg width="20" height="12" viewBox="0 0 20 12" fill="none" xmlns="http://www.w3.org/2000/svg">
<path d="M10.0001 8.4132L2.12428 0.537276C1.99071 0.403771 1.83699 0.336948 1.66333 0.336948C1.48968 0.336948 1.33596 0.403701 1.20266 0.537276L0.200538 1.5394C0.0670331 1.67305 0 1.8267 0 1.99993C0 2.17365 0.0670331 2.3273 0.200538 2.46088L9.53905 11.7998C9.67263 11.9334 9.82635 12 10 12C10.1737 12 10.3274 11.9334 10.4609 11.7998L19.7995 2.46137C19.9332 2.32759 20 2.1738 20 2.00014C20 1.8267 19.9332 1.67305 19.7995 1.53947L18.798 0.537347C18.6645 0.403842 18.5107 0.33723 18.3369 0.33723C18.1634 0.33723 18.0097 0.403772 17.8761 0.537347L10.0001 8.4132Z" fill="#1E1E1E"/>
</svg>
