<svg width="9" height="15" viewBox="0 0 9 15" fill="none" xmlns="http://www.w3.org/2000/svg">
<path d="M7.25097 0.290467L0.627683 6.70024C0.435533 6.88615 0.327633 7.13834 0.327633 7.40123C0.327633 7.66416 0.435533 7.91631 0.627683 8.10226L7.25097 14.512C7.50976 14.7625 7.88698 14.8604 8.24054 14.7687C8.59409 14.6771 8.87027 14.4099 8.96504 14.0678C9.05981 13.7256 8.95877 13.3605 8.69998 13.11L2.80103 7.40123L8.69998 1.69245C8.99294 1.40888 9.08055 0.982461 8.92196 0.612004C8.76338 0.241546 8.38983 6.38498e-06 7.97547 8.47509e-07C7.70365 -0.000343398 7.4429 0.104196 7.25097 0.290467Z" fill="#5E8E22"/>
</svg>
