<svg width="20" height="20" viewBox="0 0 20 20" fill="none" xmlns="http://www.w3.org/2000/svg">
<path d="M10.0001 0C4.48602 0 0 4.48602 0 10.0001C0 15.5141 4.48602 20.0001 10.0001 20.0001C15.5141 20.0001 20.0001 15.5141 20.0001 10.0001C20.0001 4.48602 15.514 0 10.0001 0ZM10.0001 18.2858C5.43139 18.2858 1.71431 14.5687 1.71431 10.0001C1.71431 5.43139 5.43139 1.71431 10.0001 1.71431C14.5687 1.71431 18.2858 5.43139 18.2858 10.0001C18.2858 14.5687 14.5686 18.2858 10.0001 18.2858Z" fill="#A6B2BB"/>
<path d="M13.8689 6.13113C13.5341 5.7963 12.9912 5.7963 12.6569 6.13113L9.99954 8.78885L7.34216 6.13113C7.00733 5.7963 6.46497 5.7963 6.13014 6.13113C5.79531 6.46595 5.79531 7.00831 6.13014 7.34314L8.78753 10.0008L6.13003 12.6585C5.7952 12.9933 5.7952 13.5357 6.13003 13.8705C6.29738 14.0379 6.51674 14.1216 6.73609 14.1216C6.95544 14.1216 7.17503 14.038 7.34216 13.8705L9.99954 11.2129L12.6569 13.8705C12.8243 14.0379 13.0436 14.1216 13.263 14.1216C13.4823 14.1216 13.7016 14.038 13.8691 13.8705C14.2039 13.5357 14.2039 12.9933 13.8691 12.6585L11.2116 10.0009L13.8689 7.34325C14.2038 7.00843 14.2038 6.46595 13.8689 6.13113Z" fill="#A6B2BB"/>
</svg>
