<svg width="20" height="16" viewBox="0 0 20 16" fill="none" xmlns="http://www.w3.org/2000/svg">
<path fill-rule="evenodd" clip-rule="evenodd" d="M0.624718 8.30832C0.790403 8.30832 0.949303 8.37414 1.06646 8.4913C1.18362 8.60846 1.24944 8.76735 1.24944 8.93304V13.3077C1.24944 13.6393 1.38116 13.9573 1.61563 14.1918C1.8501 14.4262 2.1681 14.558 2.49969 14.558H17.4995C17.8311 14.558 18.1491 14.4262 18.3836 14.1918C18.618 13.9573 18.7497 13.6393 18.7497 13.3077V8.93386C18.7497 8.76807 18.8156 8.60906 18.9328 8.49183C19.0501 8.3746 19.2091 8.30873 19.3749 8.30873C19.5407 8.30873 19.6997 8.3746 19.8169 8.49183C19.9341 8.60906 20 8.76807 20 8.93386V13.3085C19.9999 13.6368 19.9351 13.9618 19.8094 14.2651C19.6837 14.5683 19.4995 14.8438 19.2673 15.0758C19.0351 15.3079 18.7595 15.4919 18.4561 15.6174C18.1528 15.743 17.8278 15.8075 17.4995 15.8074H2.49969C1.83687 15.8074 1.20119 15.5442 0.732433 15.0755C0.263673 14.6069 0.000217674 13.9713 0 13.3085L0 8.93386C0 8.76818 0.0658183 8.60928 0.182976 8.49212C0.300133 8.37496 0.459032 8.30914 0.624718 8.30914V8.30832ZM6.24964 4.37613C6.30766 4.43424 6.37657 4.48034 6.45243 4.51179C6.52828 4.54324 6.60959 4.55943 6.6917 4.55943C6.77382 4.55943 6.85513 4.54324 6.93098 4.51179C7.00684 4.48034 7.07575 4.43424 7.13377 4.37613L9.99959 1.50867L12.8654 4.37449C12.9222 4.43714 12.991 4.48763 13.0679 4.52288C13.1447 4.55814 13.2279 4.57744 13.3124 4.5796C13.3969 4.58177 13.481 4.56676 13.5595 4.53548C13.6381 4.50421 13.7094 4.45732 13.7693 4.39765C13.8292 4.33799 13.8764 4.26679 13.9079 4.18836C13.9395 4.10994 13.9548 4.02593 13.953 3.94141C13.9511 3.85689 13.9321 3.77363 13.8972 3.69666C13.8622 3.6197 13.812 3.55063 13.7495 3.49365L10.4421 0.183709C10.384 0.125479 10.3151 0.0792771 10.2391 0.0477524C10.1632 0.0162277 10.0818 0 9.99959 0C9.91738 0 9.83597 0.0162277 9.76004 0.0477524C9.68411 0.0792771 9.61515 0.125479 9.55712 0.183709L6.24964 3.49365C6.19141 3.55168 6.14521 3.62064 6.11368 3.69657C6.08216 3.7725 6.06593 3.85391 6.06593 3.93612C6.06593 4.01833 6.08216 4.09974 6.11368 4.17567C6.14521 4.2516 6.19141 4.32056 6.24964 4.37859V4.37613Z" fill="black"/>
<path fill-rule="evenodd" clip-rule="evenodd" d="M10.0005 0.808594C10.1662 0.808594 10.3251 0.874413 10.4423 0.99157C10.5594 1.10873 10.6253 1.26763 10.6253 1.43331V11.4329C10.6253 11.5987 10.5594 11.7577 10.4422 11.8749C10.3249 11.9922 10.1659 12.058 10.0001 12.058C9.83433 12.058 9.67533 11.9922 9.5581 11.8749C9.44086 11.7577 9.375 11.5987 9.375 11.4329V1.43331C9.375 1.3512 9.39119 1.2699 9.42263 1.19405C9.45408 1.11821 9.50017 1.0493 9.55826 0.99128C9.61636 0.933258 9.68533 0.887259 9.76122 0.855912C9.83711 0.824566 9.91843 0.808486 10.0005 0.808594Z" fill="black"/>
</svg>
