<svg width="102" height="89" viewBox="0 0 102 89" fill="none" xmlns="http://www.w3.org/2000/svg">
  <path d="M85 76.2857V79.4643C85 84.7308 81.1945 89 76.5 89H8.5C3.80552 89 0 84.7308 0 79.4643V28.6071C0 23.3406 3.80552 19.0714 8.5 19.0714H11.3333V28.6071H9.5625C9.28071 28.6071 9.01046 28.7327 8.8112 28.9563C8.61194 29.1798 8.5 29.483 8.5 29.7991V78.2723C8.5 78.5884 8.61194 78.8916 8.8112 79.1152C9.01046 79.3387 9.28071 79.4643 9.5625 79.4643H75.4375C75.7193 79.4643 75.9895 79.3387 76.1888 79.1152C76.3881 78.8916 76.5 78.5884 76.5 78.2723V76.2857H85ZM92.4375 9.53571H26.5625C26.2807 9.53571 26.0105 9.6613 25.8112 9.88483C25.6119 10.1084 25.5 10.4116 25.5 10.7277V59.2009C25.5 59.517 25.6119 59.8202 25.8112 60.0437C26.0105 60.2673 26.2807 60.3929 26.5625 60.3929H92.4375C92.7193 60.3929 92.9895 60.2673 93.1888 60.0437C93.3881 59.8202 93.5 59.517 93.5 59.2009V10.7277C93.5 10.4116 93.3881 10.1084 93.1888 9.88483C92.9895 9.6613 92.7193 9.53571 92.4375 9.53571ZM93.5 0C98.1945 0 102 4.26922 102 9.53571V60.3929C102 65.6594 98.1945 69.9286 93.5 69.9286H25.5C20.8055 69.9286 17 65.6594 17 60.3929V9.53571C17 4.26922 20.8055 0 25.5 0H93.5ZM46.75 22.25C46.75 26.6386 43.5786 30.1964 39.6667 30.1964C35.7547 30.1964 32.5833 26.6386 32.5833 22.25C32.5833 17.8614 35.7547 14.3036 39.6667 14.3036C43.5786 14.3036 46.75 17.8614 46.75 22.25ZM34 41.3214L40.9974 33.4714C41.8273 32.5404 43.1727 32.5404 44.0027 33.4714L51 41.3214L69.3308 20.7571C70.1606 19.8261 71.5061 19.8261 72.3361 20.7571L85 34.9643V50.8571H34V41.3214Z" fill="#C7CECF"/>
</svg>
