<svg width="17" height="16" viewBox="0 0 17 16" fill="none" xmlns="http://www.w3.org/2000/svg">
<path d="M11.8734 10.3064L12.8179 9.35013C12.9655 9.20071 13.2222 9.3053 13.2222 9.52046V13.8654C13.2222 14.6573 12.5877 15.2998 11.8056 15.2998H1.41667C0.634549 15.2998 0 14.6573 0 13.8654V3.34667C0 2.55478 0.634549 1.9123 1.41667 1.9123H9.48872C9.69827 1.9123 9.80451 2.16929 9.65695 2.32169L8.7125 3.27794C8.66823 3.32277 8.6092 3.34667 8.54427 3.34667H1.41667V13.8654H11.8056V10.4737C11.8056 10.411 11.8292 10.3512 11.8734 10.3064ZM16.4953 4.27603L8.74497 12.1233L6.07691 12.4221C5.30365 12.5087 4.64549 11.8483 4.73108 11.0594L5.02622 8.35802L12.7766 0.510796C13.4524 -0.17352 14.5444 -0.17352 15.2174 0.510796L16.4924 1.80173C17.1682 2.48605 17.1682 3.5947 16.4953 4.27603ZM13.5793 5.19941L11.8646 3.46322L6.3809 9.01843L6.16545 10.9698L8.09271 10.7516L13.5793 5.19941ZM15.4918 2.81775L14.2168 1.52681C14.0958 1.40429 13.8981 1.40429 13.78 1.52681L12.8681 2.45019L14.5828 4.18638L15.4948 3.263C15.6128 3.13749 15.6128 2.94027 15.4918 2.81775Z" fill="#8B97A1"/>
</svg>
