<svg width="23" height="15" viewBox="0 0 23 15" fill="none" xmlns="http://www.w3.org/2000/svg">
<path d="M10.9774 3.125C10.5808 3.13147 10.1871 3.19724 9.80831 3.32031C9.98351 3.64192 10.0768 4.00504 10.0793 4.375C10.0793 4.66227 10.0251 4.94672 9.91973 5.21212C9.81441 5.47752 9.66003 5.71867 9.46542 5.9218C9.27081 6.12492 9.03978 6.28605 8.78551 6.39599C8.53123 6.50592 8.25871 6.5625 7.98349 6.5625C7.62905 6.55993 7.28115 6.46256 6.97303 6.27969C6.72993 7.15968 6.75826 8.09721 7.05401 8.95947C7.34976 9.82172 7.89794 10.565 8.62089 11.084C9.34384 11.603 10.2049 11.8714 11.0821 11.8513C11.9594 11.8311 12.8083 11.5233 13.5086 10.9716C14.209 10.4199 14.7253 9.65212 14.9844 8.7771C15.2434 7.90209 15.2322 6.96417 14.9522 6.0962C14.6722 5.22823 14.1377 4.47421 13.4243 3.94096C12.7109 3.4077 11.8549 3.12224 10.9774 3.125V3.125ZM21.6255 6.92969C19.5959 2.79648 15.578 0 10.9774 0C6.37686 0 2.35784 2.79844 0.329435 6.93008C0.243824 7.10684 0.199219 7.30213 0.199219 7.5002C0.199219 7.69826 0.243824 7.89355 0.329435 8.07031C2.35896 12.2035 6.37686 15 10.9774 15C15.578 15 19.5971 12.2016 21.6255 8.06992C21.7111 7.89316 21.7557 7.69787 21.7557 7.4998C21.7557 7.30174 21.7111 7.10645 21.6255 6.92969V6.92969ZM10.9774 13.125C7.28552 13.125 3.90085 10.9766 2.07304 7.5C3.90085 4.02344 7.28515 1.875 10.9774 1.875C14.6697 1.875 18.054 4.02344 19.8819 7.5C18.0544 10.9766 14.6697 13.125 10.9774 13.125Z" fill="#BDBDBD"/>
<line x1="0.223607" y1="1.55279" x2="22.2236" y2="12.5528" stroke="#BDBDBD"/>
</svg>
