<svg width="22" height="15" viewBox="0 0 22 15" fill="none" xmlns="http://www.w3.org/2000/svg">
<path d="M10.9765 3.125C10.5798 3.13147 10.1861 3.19724 9.80733 3.32031C9.98254 3.64192 10.0758 4.00504 10.0783 4.375C10.0783 4.66227 10.0241 4.94672 9.91875 5.21212C9.81343 5.47752 9.65906 5.71867 9.46445 5.9218C9.26984 6.12492 9.0388 6.28605 8.78453 6.39599C8.53026 6.50592 8.25773 6.5625 7.98251 6.5625C7.62807 6.55993 7.28017 6.46256 6.97205 6.27969C6.72895 7.15969 6.75729 8.09721 7.05304 8.95947C7.34879 9.82172 7.89696 10.565 8.61991 11.084C9.34286 11.603 10.2039 11.8714 11.0812 11.8513C11.9584 11.8311 12.8073 11.5233 13.5077 10.9716C14.208 10.4199 14.7243 9.65212 14.9834 8.7771C15.2425 7.90209 15.2312 6.96417 14.9512 6.0962C14.6712 5.22823 14.1367 4.47421 13.4233 3.94096C12.7099 3.4077 11.8539 3.12224 10.9765 3.125ZM21.6245 6.92969C19.595 2.79648 15.5771 0 10.9765 0C6.37588 0 2.35687 2.79844 0.328459 6.93008C0.242847 7.10684 0.198242 7.30213 0.198242 7.5002C0.198242 7.69826 0.242847 7.89355 0.328459 8.07031C2.35799 12.2035 6.37588 15 10.9765 15C15.5771 15 19.5961 12.2016 21.6245 8.06992C21.7101 7.89316 21.7547 7.69787 21.7547 7.4998C21.7547 7.30174 21.7101 7.10645 21.6245 6.92969ZM10.9765 13.125C7.28455 13.125 3.89988 10.9766 2.07207 7.5C3.89988 4.02344 7.28417 1.875 10.9765 1.875C14.6688 1.875 18.0531 4.02344 19.8809 7.5C18.0534 10.9766 14.6688 13.125 10.9765 13.125Z" fill="#BDBDBD"/>
</svg>
