<svg width="22" height="15" viewBox="0 0 22 15" fill="none" xmlns="http://www.w3.org/2000/svg">
<path d="M0.342976 8.06317L6.44998 14.1412C6.66997 14.3601 6.96793 14.4827 7.27831 14.4819C7.58868 14.4812 7.88604 14.3572 8.10498 14.1372C8.32391 13.9172 8.44649 13.6192 8.44574 13.3088C8.44499 12.9985 8.32097 12.7011 8.10098 12.4822L4.00098 8.40217L20.832 8.40217C21.142 8.40217 21.4394 8.27901 21.6586 8.05978C21.8778 7.84055 22.001 7.54322 22.001 7.23318C22.001 6.92314 21.8778 6.6258 21.6586 6.40657C21.4394 6.18734 21.142 6.06417 20.832 6.06417L4.00098 6.06417L8.10098 1.98417C8.31496 1.76431 8.43393 1.46913 8.43222 1.16233C8.43052 0.855534 8.30827 0.561703 8.09185 0.344234C7.87543 0.126766 7.58219 0.00309683 7.27541 -9.53674e-05C6.96862 -0.00328757 6.67287 0.114257 6.45198 0.327175L0.344978 6.40518C0.235697 6.51375 0.148929 6.64284 0.0896606 6.78503C0.0303923 6.92722 -0.000210905 7.07971 -0.000396729 7.23376C-0.000582552 7.38781 0.0296559 7.54037 0.0885811 7.68271C0.147506 7.82504 0.233956 7.95433 0.342976 8.06317V8.06317Z" fill="black"/>
</svg>
