<svg width="20" height="21" viewBox="0 0 20 21" fill="none" xmlns="http://www.w3.org/2000/svg">
<path d="M19.8754 19.4745L14.0604 13.6741C16.8017 10.2767 16.3033 5.30489 12.8974 2.57039C9.49142 -0.164105 4.50711 0.415939 1.76574 3.81334C-0.975635 7.21075 -0.477204 12.1826 2.92874 14.9171C5.83626 17.2372 9.98985 17.2372 12.8974 14.9171L18.7124 20.7175C18.8785 20.8832 19.1277 20.8832 19.2939 20.7175L19.8754 20.1375C20.0415 19.9717 20.0415 19.7231 19.8754 19.4745ZM7.91305 14.9999C4.50711 14.9999 1.68266 12.1826 1.68266 8.78515C1.68266 5.38775 4.50711 2.57039 7.91305 2.57039C11.319 2.57039 14.1434 5.38775 14.1434 8.78515C14.1434 12.1826 11.319 14.9999 7.91305 14.9999Z" fill="#9DA2AB"/>
</svg>
