<svg width="183" height="209" viewBox="0 0 183 209" fill="none" xmlns="http://www.w3.org/2000/svg">
<path d="M91.5 104.5C120.38 104.5 143.786 81.11 143.786 52.25C143.786 23.39 120.38 0 91.5 0C62.6203 0 39.2143 23.39 39.2143 52.25C39.2143 81.11 62.6203 104.5 91.5 104.5ZM128.1 117.562H121.278C112.21 121.726 102.121 124.094 91.5 124.094C80.8795 124.094 70.8308 121.726 61.7217 117.562H54.9C24.5906 117.562 0 142.136 0 172.425V189.406C0 200.224 8.78237 209 19.6071 209H163.393C174.218 209 183 200.224 183 189.406V172.425C183 142.136 158.409 117.562 128.1 117.562Z" fill="#C9CDD1"/>
</svg>
